<?xml version="1.0" encoding="UTF-8" standalone="no"?>
<!DOCTYPE svg PUBLIC "-//W3C//DTD SVG 1.0//EN" "http://www.w3.org/TR/2001/PR-SVG-20010719/DTD/svg10.dtd">
<svg width="29cm" height="19cm" viewBox="276 82 573 374" xmlns="http://www.w3.org/2000/svg" xmlns:xlink="http://www.w3.org/1999/xlink">
  <g>
    <rect style="fill: #ffffff" x="447" y="83" width="192" height="127"/>
    <rect style="fill: none; fill-opacity:0; stroke-width: 2; stroke: #000000" x="447" y="83" width="192" height="127"/>
    <text font-size="12.8" style="fill: #000000;text-anchor:middle;font-family:sans-serif;font-style:normal;font-weight:normal" x="543" y="151.3">
      <tspan x="543" y="151.3">PC0</tspan>
    </text>
  </g>
  <g>
    <path style="fill: #ffffff" d="M 304.857 240 L 394.143,240 L 412,281 L 394.143,322 L 304.857,322 L 287,281 L 304.857,240z"/>
    <path style="fill: none; fill-opacity:0; stroke-width: 2; stroke: #000000" d="M 304.857 240 L 394.143,240 L 412,281 L 394.143,322 L 304.857,322 L 287,281 L 304.857,240"/>
    <text font-size="12.8" style="fill: #000000;text-anchor:middle;font-family:sans-serif;font-style:normal;font-weight:normal" x="349.5" y="285.8">
      <tspan x="349.5" y="285.8"></tspan>
    </text>
  </g>
  <g>
    <path style="fill: #ffffff" d="M 707.447 242.8 L 796.733,242.8 L 814.59,283.8 L 796.733,324.8 L 707.447,324.8 L 689.59,283.8 L 707.447,242.8z"/>
    <path style="fill: none; fill-opacity:0; stroke-width: 2; stroke: #000000" d="M 707.447 242.8 L 796.733,242.8 L 814.59,283.8 L 796.733,324.8 L 707.447,324.8 L 689.59,283.8 L 707.447,242.8"/>
    <text font-size="12.8" style="fill: #000000;text-anchor:middle;font-family:sans-serif;font-style:normal;font-weight:normal" x="752.09" y="288.6">
      <tspan x="752.09" y="288.6">Lan2</tspan>
    </text>
  </g>
  <g>
    <line style="fill: none; fill-opacity:0; stroke-width: 2; stroke: #000000" x1="642" y1="149" x2="748.686" y2="239.9"/>
    <polyline style="fill: none; fill-opacity:0; stroke-width: 2; stroke: #000000" points="739.533,238.67 750.388,241.35 746.019,231.058 "/>
  </g>
  <g>
    <line style="fill: none; fill-opacity:0; stroke-width: 2; stroke: #000000" x1="447" y1="146.5" x2="352.728" y2="236.905"/>
    <polyline style="fill: none; fill-opacity:0; stroke-width: 2; stroke: #000000" points="354.871,227.922 351.114,238.452 361.792,235.14 "/>
  </g>
  <text font-size="12.8" style="fill: #000000;text-anchor:start;font-family:sans-serif;font-style:normal;font-weight:normal" x="367.358" y="281">
    <tspan x="367.358" y="281"></tspan>
  </text>
  <text font-size="12.8" style="fill: #000000;text-anchor:start;font-family:sans-serif;font-style:normal;font-weight:normal" x="337.358" y="285">
    <tspan x="337.358" y="285">Lan1</tspan>
  </text>
  <text font-size="12.8" style="fill: #000000;text-anchor:start;font-family:sans-serif;font-style:normal;font-weight:normal" x="276" y="225">
    <tspan x="276" y="225">172.22.128.0/23</tspan>
  </text>
  <text font-size="12.8" style="fill: #000000;text-anchor:start;font-family:sans-serif;font-style:normal;font-weight:normal" x="755" y="218">
    <tspan x="755" y="218">172.22.160.0/19</tspan>
  </text>
  <g>
    <rect style="fill: #ffffff" x="294" y="397" width="112" height="58"/>
    <rect style="fill: none; fill-opacity:0; stroke-width: 2; stroke: #000000" x="294" y="397" width="112" height="58"/>
    <text font-size="12.8" style="fill: #000000;text-anchor:middle;font-family:sans-serif;font-style:normal;font-weight:normal" x="350" y="430.8">
      <tspan x="350" y="430.8"></tspan>
    </text>
  </g>
  <g>
    <rect style="fill: #ffffff" x="696.5" y="394.8" width="112" height="58"/>
    <rect style="fill: none; fill-opacity:0; stroke-width: 2; stroke: #000000" x="696.5" y="394.8" width="112" height="58"/>
    <text font-size="12.8" style="fill: #000000;text-anchor:middle;font-family:sans-serif;font-style:normal;font-weight:normal" x="752.5" y="428.6">
      <tspan x="752.5" y="428.6">PC2</tspan>
    </text>
  </g>
  <text font-size="12.8" style="fill: #000000;text-anchor:start;font-family:sans-serif;font-style:normal;font-weight:normal" x="350" y="426">
    <tspan x="350" y="426">PC1</tspan>
  </text>
  <g>
    <line style="fill: none; fill-opacity:0; stroke-width: 2; stroke: #000000" x1="349.5" y1="322" x2="349.97" y2="392.528"/>
    <polyline style="fill: none; fill-opacity:0; stroke-width: 2; stroke: #000000" points="344.919,384.798 349.985,394.764 354.918,384.731 "/>
  </g>
  <g>
    <line style="fill: none; fill-opacity:0; stroke-width: 2; stroke: #000000" x1="752.09" y1="324.8" x2="752.474" y2="390.328"/>
    <polyline style="fill: none; fill-opacity:0; stroke-width: 2; stroke: #000000" points="747.428,382.593 752.487,392.564 757.428,382.535 "/>
  </g>
</svg>
